<mxfile host="app.diagrams.net" modified="2022-12-07T00:45:26.573Z" agent="5.0 (Windows NT 10.0; Win64; x64) AppleWebKit/537.36 (KHTML, like Gecko) Chrome/108.0.0.0 Safari/537.36" etag="xL8PANiEfYkbUY2az8x1" version="20.6.0" type="github">
  <diagram id="Wd_oJn38wZUzVgSo89xS" name="Page-1">
    <mxGraphModel dx="3555" dy="1905" grid="0" gridSize="10" guides="1" tooltips="1" connect="1" arrows="1" fold="1" page="1" pageScale="1" pageWidth="1654" pageHeight="1169" math="0" shadow="0">
      <root>
        <mxCell id="0" />
        <mxCell id="1" parent="0" />
        <mxCell id="pzFhs3liKInP-grsurP8-2" value="&lt;font style=&quot;font-size: 14px&quot;&gt;Use Case Diagram&lt;br&gt;&lt;/font&gt;" style="shape=umlFrame;whiteSpace=wrap;html=1;width=100;height=60;perimeterSpacing=0;shadow=0;fontFamily=GOST type A Regular;fontSource=https%3A%2F%2Fwebfonts.pro%2Flight-fonts%2F123-gost_type_a.html;" parent="1" vertex="1">
          <mxGeometry x="328" y="232" width="1066" height="523" as="geometry" />
        </mxCell>
        <mxCell id="pzFhs3liKInP-grsurP8-4" value="&lt;span style=&quot;font-size: 14px;&quot;&gt;Авторизированный&lt;br&gt;Пользователь&lt;/span&gt;" style="shape=umlActor;verticalLabelPosition=bottom;verticalAlign=top;html=1;fontFamily=GOST type A Regular;fontSource=https%3A%2F%2Fwebfonts.pro%2Flight-fonts%2F123-gost_type_a.html;" parent="1" vertex="1">
          <mxGeometry x="831" y="771" width="60" height="140" as="geometry" />
        </mxCell>
        <mxCell id="75nwqV4LWfnyFNcIzqMc-3" style="edgeStyle=orthogonalEdgeStyle;rounded=0;orthogonalLoop=1;jettySize=auto;html=1;exitX=1;exitY=1;exitDx=0;exitDy=0;entryX=0;entryY=0.5;entryDx=0;entryDy=0;strokeColor=none;startArrow=none;" parent="1" source="3QS9H70OiHH0bNNLxcRu-53" edge="1">
          <mxGeometry relative="1" as="geometry">
            <mxPoint x="657.9730526852054" y="607.0519452990877" as="sourcePoint" />
            <mxPoint x="639" y="611.5" as="targetPoint" />
          </mxGeometry>
        </mxCell>
        <mxCell id="_zqxxpLCkDMLm2a-AfCi-22" value="&amp;lt;&amp;lt;extend&amp;gt;&amp;gt;" style="text;html=1;strokeColor=none;fillColor=none;align=center;verticalAlign=middle;whiteSpace=wrap;rounded=0;shadow=0;fontFamily=GOST type A Regular;fontSource=https%3A%2F%2Fwebfonts.pro%2Flight-fonts%2F123-gost_type_a.html;" parent="1" vertex="1">
          <mxGeometry x="582" y="490" width="40" height="20" as="geometry" />
        </mxCell>
        <mxCell id="_zqxxpLCkDMLm2a-AfCi-23" style="edgeStyle=none;rounded=0;jumpStyle=none;jumpSize=21;orthogonalLoop=1;jettySize=auto;html=1;exitX=0;exitY=0.5;exitDx=0;exitDy=0;entryX=1;entryY=0.5;entryDx=0;entryDy=0;dashed=1;startSize=19;endSize=20;strokeWidth=2;fontFamily=GOST type A Regular;fontSource=https%3A%2F%2Fwebfonts.pro%2Flight-fonts%2F123-gost_type_a.html;" parent="1" source="3QS9H70OiHH0bNNLxcRu-14" target="3QS9H70OiHH0bNNLxcRu-13" edge="1">
          <mxGeometry relative="1" as="geometry">
            <mxPoint x="904" y="611.5" as="sourcePoint" />
            <mxPoint x="839" y="611.5" as="targetPoint" />
          </mxGeometry>
        </mxCell>
        <mxCell id="3QS9H70OiHH0bNNLxcRu-1" value="&lt;font style=&quot;font-size: 14px&quot;&gt;Просмотр существующих услуг&lt;/font&gt;" style="ellipse;whiteSpace=wrap;html=1;fontFamily=GOST type A Regular;fontSource=https%3A%2F%2Fwebfonts.pro%2Flight-fonts%2F123-gost_type_a.html;" parent="1" vertex="1">
          <mxGeometry x="365" y="454" width="200" height="135" as="geometry" />
        </mxCell>
        <mxCell id="3QS9H70OiHH0bNNLxcRu-2" value="&lt;font style=&quot;font-size: 14px&quot;&gt;Сортировка по категориям&lt;/font&gt;" style="ellipse;whiteSpace=wrap;html=1;fontFamily=GOST type A Regular;fontSource=https%3A%2F%2Fwebfonts.pro%2Flight-fonts%2F123-gost_type_a.html;" parent="1" vertex="1">
          <mxGeometry x="626" y="454" width="200" height="135" as="geometry" />
        </mxCell>
        <mxCell id="3QS9H70OiHH0bNNLxcRu-3" style="edgeStyle=none;rounded=0;jumpStyle=none;jumpSize=21;orthogonalLoop=1;jettySize=auto;html=1;exitX=0;exitY=0.5;exitDx=0;exitDy=0;entryX=1;entryY=0.5;entryDx=0;entryDy=0;dashed=1;startSize=19;endSize=20;strokeWidth=2;fontFamily=GOST type A Regular;fontSource=https%3A%2F%2Fwebfonts.pro%2Flight-fonts%2F123-gost_type_a.html;" parent="1" source="3QS9H70OiHH0bNNLxcRu-2" target="3QS9H70OiHH0bNNLxcRu-1" edge="1">
          <mxGeometry relative="1" as="geometry">
            <mxPoint x="609" y="446" as="sourcePoint" />
            <mxPoint x="544" y="446" as="targetPoint" />
          </mxGeometry>
        </mxCell>
        <mxCell id="3QS9H70OiHH0bNNLxcRu-10" value="&lt;span style=&quot;font-size: 14px;&quot;&gt;Администратор&lt;/span&gt;" style="shape=umlActor;verticalLabelPosition=bottom;verticalAlign=top;html=1;fontFamily=GOST type A Regular;fontSource=https%3A%2F%2Fwebfonts.pro%2Flight-fonts%2F123-gost_type_a.html;" parent="1" vertex="1">
          <mxGeometry x="1417" y="454" width="60" height="140" as="geometry" />
        </mxCell>
        <mxCell id="3QS9H70OiHH0bNNLxcRu-13" value="&lt;font style=&quot;font-size: 14px&quot;&gt;Авторизация&lt;/font&gt;" style="ellipse;whiteSpace=wrap;html=1;fontFamily=GOST type A Regular;fontSource=https%3A%2F%2Fwebfonts.pro%2Flight-fonts%2F123-gost_type_a.html;" parent="1" vertex="1">
          <mxGeometry x="365" y="294" width="200" height="135" as="geometry" />
        </mxCell>
        <mxCell id="3QS9H70OiHH0bNNLxcRu-14" value="&lt;font style=&quot;font-size: 14px&quot;&gt;Регистрация&lt;/font&gt;" style="ellipse;whiteSpace=wrap;html=1;fontFamily=GOST type A Regular;fontSource=https%3A%2F%2Fwebfonts.pro%2Flight-fonts%2F123-gost_type_a.html;" parent="1" vertex="1">
          <mxGeometry x="631" y="294" width="200" height="135" as="geometry" />
        </mxCell>
        <mxCell id="3QS9H70OiHH0bNNLxcRu-19" value="&lt;span style=&quot;font-size: 14px;&quot;&gt;Удаление любой услуги или комментария&lt;/span&gt;" style="ellipse;whiteSpace=wrap;html=1;fontFamily=GOST type A Regular;fontSource=https%3A%2F%2Fwebfonts.pro%2Flight-fonts%2F123-gost_type_a.html;" parent="1" vertex="1">
          <mxGeometry x="1160" y="456.5" width="200" height="135" as="geometry" />
        </mxCell>
        <mxCell id="3QS9H70OiHH0bNNLxcRu-20" value="" style="endArrow=none;html=1;exitX=0.5;exitY=0.5;exitDx=0;exitDy=0;exitPerimeter=0;entryX=1;entryY=0.5;entryDx=0;entryDy=0;fontFamily=GOST type A Regular;fontSource=https%3A%2F%2Fwebfonts.pro%2Flight-fonts%2F123-gost_type_a.html;" parent="1" source="3QS9H70OiHH0bNNLxcRu-10" target="3QS9H70OiHH0bNNLxcRu-19" edge="1">
          <mxGeometry width="50" height="50" relative="1" as="geometry">
            <mxPoint x="1288" y="468" as="sourcePoint" />
            <mxPoint x="881" y="420.5" as="targetPoint" />
          </mxGeometry>
        </mxCell>
        <mxCell id="3QS9H70OiHH0bNNLxcRu-21" value="&lt;font style=&quot;font-size: 14px&quot;&gt;Создание, изменение, удаление своих услуг&lt;/font&gt;" style="ellipse;whiteSpace=wrap;html=1;fontFamily=GOST type A Regular;fontSource=https%3A%2F%2Fwebfonts.pro%2Flight-fonts%2F123-gost_type_a.html;" parent="1" vertex="1">
          <mxGeometry x="365" y="609" width="200" height="135" as="geometry" />
        </mxCell>
        <mxCell id="3QS9H70OiHH0bNNLxcRu-25" value="" style="endArrow=none;html=1;exitX=0.5;exitY=1;exitDx=0;exitDy=0;entryX=0.5;entryY=0.5;entryDx=0;entryDy=0;fontFamily=GOST type A Regular;fontSource=https%3A%2F%2Fwebfonts.pro%2Flight-fonts%2F123-gost_type_a.html;entryPerimeter=0;" parent="1" source="3QS9H70OiHH0bNNLxcRu-21" target="3QS9H70OiHH0bNNLxcRu-28" edge="1">
          <mxGeometry width="50" height="50" relative="1" as="geometry">
            <mxPoint x="1298" y="478" as="sourcePoint" />
            <mxPoint x="890.9999999999986" y="762.5" as="targetPoint" />
          </mxGeometry>
        </mxCell>
        <mxCell id="3QS9H70OiHH0bNNLxcRu-70" style="edgeStyle=orthogonalEdgeStyle;rounded=0;orthogonalLoop=1;jettySize=auto;html=1;exitX=0.5;exitY=0.5;exitDx=0;exitDy=0;exitPerimeter=0;entryX=0.536;entryY=0.456;entryDx=0;entryDy=0;entryPerimeter=0;dashed=1;" parent="1" source="3QS9H70OiHH0bNNLxcRu-27" target="pzFhs3liKInP-grsurP8-4" edge="1">
          <mxGeometry relative="1" as="geometry" />
        </mxCell>
        <mxCell id="3QS9H70OiHH0bNNLxcRu-27" value="&lt;span style=&quot;font-size: 14px;&quot;&gt;Заказчик&lt;/span&gt;" style="shape=umlActor;verticalLabelPosition=bottom;verticalAlign=top;html=1;fontFamily=GOST type A Regular;fontSource=https%3A%2F%2Fwebfonts.pro%2Flight-fonts%2F123-gost_type_a.html;" parent="1" vertex="1">
          <mxGeometry x="1080" y="765" width="60" height="140" as="geometry" />
        </mxCell>
        <mxCell id="3QS9H70OiHH0bNNLxcRu-69" style="edgeStyle=orthogonalEdgeStyle;rounded=0;orthogonalLoop=1;jettySize=auto;html=1;exitX=0.5;exitY=0.5;exitDx=0;exitDy=0;exitPerimeter=0;entryX=0.478;entryY=0.456;entryDx=0;entryDy=0;entryPerimeter=0;dashed=1;" parent="1" source="3QS9H70OiHH0bNNLxcRu-28" target="pzFhs3liKInP-grsurP8-4" edge="1">
          <mxGeometry relative="1" as="geometry" />
        </mxCell>
        <mxCell id="3QS9H70OiHH0bNNLxcRu-28" value="&lt;span style=&quot;font-size: 14px;&quot;&gt;Исполнитель&lt;/span&gt;" style="shape=umlActor;verticalLabelPosition=bottom;verticalAlign=top;html=1;fontFamily=GOST type A Regular;fontSource=https%3A%2F%2Fwebfonts.pro%2Flight-fonts%2F123-gost_type_a.html;" parent="1" vertex="1">
          <mxGeometry x="582" y="765" width="60" height="140" as="geometry" />
        </mxCell>
        <mxCell id="3QS9H70OiHH0bNNLxcRu-56" style="edgeStyle=orthogonalEdgeStyle;rounded=0;orthogonalLoop=1;jettySize=auto;html=1;exitX=0.5;exitY=0.5;exitDx=0;exitDy=0;exitPerimeter=0;entryX=0;entryY=0.5;entryDx=0;entryDy=0;" parent="1" source="3QS9H70OiHH0bNNLxcRu-36" target="3QS9H70OiHH0bNNLxcRu-13" edge="1">
          <mxGeometry relative="1" as="geometry">
            <Array as="points">
              <mxPoint x="248" y="514" />
              <mxPoint x="284" y="514" />
              <mxPoint x="284" y="362" />
            </Array>
          </mxGeometry>
        </mxCell>
        <mxCell id="3QS9H70OiHH0bNNLxcRu-36" value="&lt;span style=&quot;font-size: 14px;&quot;&gt;Неавторизированный&lt;br&gt;Пользователь&lt;/span&gt;" style="shape=umlActor;verticalLabelPosition=bottom;verticalAlign=top;html=1;fontFamily=GOST type A Regular;fontSource=https%3A%2F%2Fwebfonts.pro%2Flight-fonts%2F123-gost_type_a.html;" parent="1" vertex="1">
          <mxGeometry x="218" y="451.5" width="60" height="140" as="geometry" />
        </mxCell>
        <mxCell id="3QS9H70OiHH0bNNLxcRu-37" value="" style="endArrow=none;html=1;exitX=0;exitY=0.5;exitDx=0;exitDy=0;entryX=0.5;entryY=0.5;entryDx=0;entryDy=0;fontFamily=GOST type A Regular;fontSource=https%3A%2F%2Fwebfonts.pro%2Flight-fonts%2F123-gost_type_a.html;entryPerimeter=0;" parent="1" source="3QS9H70OiHH0bNNLxcRu-1" target="3QS9H70OiHH0bNNLxcRu-36" edge="1">
          <mxGeometry width="50" height="50" relative="1" as="geometry">
            <mxPoint x="233" y="386" as="sourcePoint" />
            <mxPoint x="435.0000000000009" y="391.5" as="targetPoint" />
          </mxGeometry>
        </mxCell>
        <mxCell id="3QS9H70OiHH0bNNLxcRu-41" value="&lt;span style=&quot;font-size: 14px;&quot;&gt;Добавление комментариев к услугам&lt;/span&gt;" style="ellipse;whiteSpace=wrap;html=1;fontFamily=GOST type A Regular;fontSource=https%3A%2F%2Fwebfonts.pro%2Flight-fonts%2F123-gost_type_a.html;" parent="1" vertex="1">
          <mxGeometry x="896" y="604" width="200" height="135" as="geometry" />
        </mxCell>
        <mxCell id="3QS9H70OiHH0bNNLxcRu-43" value="" style="endArrow=none;html=1;exitX=0.5;exitY=1;exitDx=0;exitDy=0;entryX=0.5;entryY=0.5;entryDx=0;entryDy=0;fontFamily=GOST type A Regular;fontSource=https%3A%2F%2Fwebfonts.pro%2Flight-fonts%2F123-gost_type_a.html;entryPerimeter=0;" parent="1" source="3QS9H70OiHH0bNNLxcRu-41" target="3QS9H70OiHH0bNNLxcRu-27" edge="1">
          <mxGeometry width="50" height="50" relative="1" as="geometry">
            <mxPoint x="435.0000000000009" y="557.5" as="sourcePoint" />
            <mxPoint x="233" y="386" as="targetPoint" />
          </mxGeometry>
        </mxCell>
        <mxCell id="3QS9H70OiHH0bNNLxcRu-44" value="&lt;span style=&quot;font-size: 14px;&quot;&gt;Просмотр своих чатов&amp;nbsp;&lt;/span&gt;" style="ellipse;whiteSpace=wrap;html=1;fontFamily=GOST type A Regular;fontSource=https%3A%2F%2Fwebfonts.pro%2Flight-fonts%2F123-gost_type_a.html;" parent="1" vertex="1">
          <mxGeometry x="632" y="604" width="200" height="135" as="geometry" />
        </mxCell>
        <mxCell id="3QS9H70OiHH0bNNLxcRu-46" value="&lt;span style=&quot;font-size: 14px;&quot;&gt;Создание чата с исполнителями услуг&lt;/span&gt;" style="ellipse;whiteSpace=wrap;html=1;fontFamily=GOST type A Regular;fontSource=https%3A%2F%2Fwebfonts.pro%2Flight-fonts%2F123-gost_type_a.html;" parent="1" vertex="1">
          <mxGeometry x="1160" y="606" width="200" height="135" as="geometry" />
        </mxCell>
        <mxCell id="3QS9H70OiHH0bNNLxcRu-48" value="" style="endArrow=none;html=1;exitX=0.5;exitY=1;exitDx=0;exitDy=0;entryX=0.5;entryY=0.5;entryDx=0;entryDy=0;fontFamily=GOST type A Regular;fontSource=https%3A%2F%2Fwebfonts.pro%2Flight-fonts%2F123-gost_type_a.html;entryPerimeter=0;" parent="1" source="3QS9H70OiHH0bNNLxcRu-46" target="3QS9H70OiHH0bNNLxcRu-27" edge="1">
          <mxGeometry width="50" height="50" relative="1" as="geometry">
            <mxPoint x="380.0000000000059" y="989.5" as="sourcePoint" />
            <mxPoint x="297" y="733" as="targetPoint" />
          </mxGeometry>
        </mxCell>
        <mxCell id="3QS9H70OiHH0bNNLxcRu-49" value="" style="endArrow=none;html=1;exitX=0.5;exitY=1;exitDx=0;exitDy=0;fontFamily=GOST type A Regular;fontSource=https%3A%2F%2Fwebfonts.pro%2Flight-fonts%2F123-gost_type_a.html;" parent="1" source="3QS9H70OiHH0bNNLxcRu-44" edge="1">
          <mxGeometry width="50" height="50" relative="1" as="geometry">
            <mxPoint x="380.0000000000059" y="527.5" as="sourcePoint" />
            <mxPoint x="858" y="837" as="targetPoint" />
          </mxGeometry>
        </mxCell>
        <mxCell id="3QS9H70OiHH0bNNLxcRu-50" value="&lt;span style=&quot;font-size: 14px;&quot;&gt;Коммуникация&lt;/span&gt;" style="ellipse;whiteSpace=wrap;html=1;fontFamily=GOST type A Regular;fontSource=https%3A%2F%2Fwebfonts.pro%2Flight-fonts%2F123-gost_type_a.html;" parent="1" vertex="1">
          <mxGeometry x="891" y="454" width="200" height="135" as="geometry" />
        </mxCell>
        <mxCell id="3QS9H70OiHH0bNNLxcRu-51" style="edgeStyle=none;rounded=0;jumpStyle=none;jumpSize=21;orthogonalLoop=1;jettySize=auto;html=1;exitX=0;exitY=0.5;exitDx=0;exitDy=0;entryX=1;entryY=0.5;entryDx=0;entryDy=0;dashed=1;startSize=19;endSize=20;strokeWidth=2;fontFamily=GOST type A Regular;fontSource=https%3A%2F%2Fwebfonts.pro%2Flight-fonts%2F123-gost_type_a.html;" parent="1" source="3QS9H70OiHH0bNNLxcRu-50" target="3QS9H70OiHH0bNNLxcRu-44" edge="1">
          <mxGeometry relative="1" as="geometry">
            <mxPoint x="1078.0000000000068" y="354.4999999999998" as="sourcePoint" />
            <mxPoint x="967.9999999999991" y="356.5" as="targetPoint" />
          </mxGeometry>
        </mxCell>
        <mxCell id="3QS9H70OiHH0bNNLxcRu-52" style="edgeStyle=none;rounded=0;jumpStyle=none;jumpSize=21;orthogonalLoop=1;jettySize=auto;html=1;exitX=1;exitY=0.5;exitDx=0;exitDy=0;entryX=0;entryY=0.5;entryDx=0;entryDy=0;dashed=1;startSize=19;endSize=20;strokeWidth=2;fontFamily=GOST type A Regular;fontSource=https%3A%2F%2Fwebfonts.pro%2Flight-fonts%2F123-gost_type_a.html;" parent="1" source="3QS9H70OiHH0bNNLxcRu-50" target="3QS9H70OiHH0bNNLxcRu-46" edge="1">
          <mxGeometry relative="1" as="geometry">
            <mxPoint x="668.0578648982364" y="639.9270388141115" as="sourcePoint" />
            <mxPoint x="586.9999999999941" y="624.4999999999998" as="targetPoint" />
          </mxGeometry>
        </mxCell>
        <mxCell id="3QS9H70OiHH0bNNLxcRu-53" value="&amp;lt;&amp;lt;extend&amp;gt;&amp;gt;" style="text;html=1;strokeColor=none;fillColor=none;align=center;verticalAlign=middle;whiteSpace=wrap;rounded=0;shadow=0;fontFamily=GOST type A Regular;fontSource=https%3A%2F%2Fwebfonts.pro%2Flight-fonts%2F123-gost_type_a.html;" parent="1" vertex="1">
          <mxGeometry x="888" y="580" width="40" height="20" as="geometry" />
        </mxCell>
        <mxCell id="3QS9H70OiHH0bNNLxcRu-54" value="" style="edgeStyle=orthogonalEdgeStyle;rounded=0;orthogonalLoop=1;jettySize=auto;html=1;exitX=1;exitY=1;exitDx=0;exitDy=0;entryX=0;entryY=0.5;entryDx=0;entryDy=0;strokeColor=none;endArrow=none;" parent="1" target="3QS9H70OiHH0bNNLxcRu-53" edge="1">
          <mxGeometry relative="1" as="geometry">
            <mxPoint x="657.9730526852054" y="607.0519452990877" as="sourcePoint" />
            <mxPoint x="639" y="611.5" as="targetPoint" />
          </mxGeometry>
        </mxCell>
        <mxCell id="3QS9H70OiHH0bNNLxcRu-55" value="&amp;lt;&amp;lt;extend&amp;gt;&amp;gt;" style="text;html=1;strokeColor=none;fillColor=none;align=center;verticalAlign=middle;whiteSpace=wrap;rounded=0;shadow=0;fontFamily=GOST type A Regular;fontSource=https%3A%2F%2Fwebfonts.pro%2Flight-fonts%2F123-gost_type_a.html;" parent="1" vertex="1">
          <mxGeometry x="1068" y="584" width="40" height="20" as="geometry" />
        </mxCell>
        <mxCell id="3QS9H70OiHH0bNNLxcRu-60" value="&amp;lt;&amp;lt;extend&amp;gt;&amp;gt;" style="text;html=1;strokeColor=none;fillColor=none;align=center;verticalAlign=middle;whiteSpace=wrap;rounded=0;shadow=0;fontFamily=GOST type A Regular;fontSource=https%3A%2F%2Fwebfonts.pro%2Flight-fonts%2F123-gost_type_a.html;" parent="1" vertex="1">
          <mxGeometry x="582" y="327" width="40" height="20" as="geometry" />
        </mxCell>
      </root>
    </mxGraphModel>
  </diagram>
</mxfile>
